<?xml version="1.0" standalone="no"?>
<!DOCTYPE svg PUBLIC "-//W3C//DTD SVG 20010904//EN"
 "http://www.w3.org/TR/2001/REC-SVG-20010904/DTD/svg10.dtd">
<svg version="1.0" xmlns="http://www.w3.org/2000/svg"
 width="219.000000pt" height="101.000000pt" viewBox="0 0 219.000000 101.000000"
 preserveAspectRatio="xMidYMid meet">

<g transform="translate(0.000000,101.000000) scale(0.100000,-0.100000)"
fill="#000000" stroke="none">
<path d="M1850 842 c-44 -5 -55 -11 -42 -24 15 -15 17 -248 2 -248 -5 0 -10
-4 -10 -10 0 -5 23 -10 50 -10 50 0 59 7 39 27 -17 17 -7 124 13 136 30 19 48
-8 48 -74 0 -32 -4 -61 -10 -64 -23 -14 -7 -25 40 -25 28 0 50 5 50 10 0 6 -4
10 -9 10 -5 0 -11 34 -13 76 -3 60 -7 79 -23 90 -26 19 -70 18 -86 -3 -12 -14
-15 -8 -19 48 -5 61 -6 64 -30 61z"/>
<path d="M190 738 l0 -93 85 85 c47 47 85 88 85 92 0 5 -38 8 -85 8 l-85 0 0
-92z"/>
<path d="M400 557 l0 -273 -45 -44 c-25 -24 -45 -48 -45 -52 0 -4 81 -8 180
-8 99 0 180 4 180 8 0 4 -20 28 -45 52 l-45 44 -2 270 -3 271 -87 3 -88 3 0
-274z"/>
<path d="M620 822 c0 -4 38 -45 85 -92 l85 -85 0 93 0 92 -85 0 c-47 0 -85 -3
-85 -8z"/>
<path d="M980 795 c0 -42 6 -43 32 -10 11 14 28 25 39 25 18 0 19 -8 19 -114
0 -92 -3 -115 -15 -120 -34 -13 -12 -26 45 -26 61 0 72 8 45 30 -12 10 -15 37
-15 121 0 96 2 109 17 109 9 0 30 -12 45 -27 l28 -27 0 37 0 37 -120 0 -120 0
0 -35z"/>
<path d="M1243 735 c-27 -19 -46 -77 -38 -115 14 -64 106 -93 153 -50 12 12
22 26 22 32 0 9 -3 9 -12 0 -21 -21 -75 -15 -92 10 -9 12 -16 26 -16 30 0 5
27 8 60 8 59 0 60 0 60 28 0 59 -84 94 -137 57z m77 -24 c17 -32 12 -41 -25
-41 -19 0 -35 5 -35 11 0 20 21 49 35 49 8 0 19 -9 25 -19z"/>
<path d="M1438 742 c-14 -6 -15 -11 -3 -37 l12 -30 13 28 c17 35 47 35 61 1
12 -33 9 -36 -36 -39 -63 -4 -97 -61 -59 -99 20 -20 68 -21 85 0 11 14 13 14
21 0 11 -20 52 -21 67 -2 9 10 8 15 -4 20 -11 4 -15 21 -15 70 0 56 -3 67 -22
80 -23 16 -89 20 -120 8z m90 -115 c5 -23 -15 -47 -39 -47 -11 0 -19 2 -19 4
0 2 -3 11 -6 19 -7 18 23 49 45 45 8 -2 17 -11 19 -21z"/>
<path d="M1674 740 c-48 -19 -68 -88 -43 -143 22 -49 101 -63 137 -24 29 31
28 41 -2 22 -27 -18 -69 -7 -80 20 -9 25 -7 74 4 96 10 18 50 27 50 11 0 -5 6
-17 14 -28 14 -18 15 -18 26 10 8 23 8 31 -2 38 -17 10 -77 9 -104 -2z"/>
<path d="M677 552 l-57 -58 53 -52 c29 -29 58 -52 65 -52 9 0 12 30 12 110 0
61 -4 110 -8 110 -4 0 -33 -26 -65 -58z"/>
<path d="M1284 456 c-10 -26 4 -48 28 -44 17 2 23 10 23 28 0 18 -6 26 -23 28
-13 2 -25 -3 -28 -12z"/>
<path d="M1040 451 c0 -5 7 -14 15 -21 12 -10 15 -36 15 -117 0 -83 -3 -105
-15 -109 -35 -14 -10 -24 58 -24 l72 1 -27 20 c-22 16 -28 29 -28 59 0 48 15
58 44 31 32 -30 36 -27 36 24 0 47 -9 56 -30 30 -7 -8 -21 -15 -31 -15 -16 0
-19 8 -19 55 0 53 1 55 27 55 16 0 39 -11 55 -27 l28 -27 0 37 0 37 -100 0
c-55 0 -100 -4 -100 -9z"/>
<path d="M1768 396 c-43 -45 -44 -46 -23 -46 12 0 15 -15 15 -73 0 -43 5 -78
12 -85 19 -19 76 -15 87 7 9 16 8 18 -10 14 -29 -8 -39 12 -39 80 0 54 1 57
24 57 35 0 42 18 9 22 -22 2 -29 9 -33 34 l-5 30 -37 -40z"/>
<path d="M1482 364 c-12 -8 -22 -10 -22 -5 0 6 -17 11 -37 11 -29 0 -34 -3
-25 -12 7 -7 12 -41 12 -83 0 -42 -5 -76 -12 -83 -9 -9 1 -12 47 -12 56 0 57
1 42 18 -19 21 -24 127 -6 137 5 4 18 0 28 -10 18 -15 19 -14 29 14 6 16 8 32
5 35 -11 11 -38 6 -61 -10z"/>
<path d="M1592 368 c-26 -13 -39 -54 -25 -77 5 -9 23 -22 39 -29 70 -31 79
-46 39 -64 -24 -11 -29 -10 -41 6 -7 11 -15 24 -18 30 -6 15 -27 -15 -23 -34
1 -11 18 -16 57 -18 48 -2 59 0 79 22 36 38 23 68 -40 94 -37 16 -50 26 -47
39 5 27 39 28 59 2 19 -26 23 -25 33 7 5 17 2 23 -16 28 -33 8 -70 6 -96 -6z"/>
<path d="M1273 352 c12 -13 17 -37 17 -77 0 -40 -5 -64 -17 -77 -15 -17 -14
-18 42 -18 56 0 57 1 42 18 -13 14 -17 38 -17 95 l0 77 -42 0 c-39 0 -40 -1
-25 -18z"/>
</g>
</svg>
